<?xml version="1.0" encoding="UTF-8" standalone="no"?>
<!DOCTYPE svg PUBLIC "-//W3C//DTD SVG 1.1//EN" "http://www.w3.org/Graphics/SVG/1.1/DTD/svg11.dtd">
<svg width="100%" height="100%" viewBox="0 0 2700 1428" version="1.1" xmlns="http://www.w3.org/2000/svg" xmlns:xlink="http://www.w3.org/1999/xlink" xml:space="preserve" xmlns:serif="http://www.serif.com/" style="fill-rule:evenodd;clip-rule:evenodd;stroke-linejoin:round;stroke-miterlimit:2;">
    <g transform="matrix(1,0,0,1,-11409,-9223.43)">
        <g transform="matrix(1,0,0,0.918128,0,782.815)">
            <g transform="matrix(2.77207,0,0,3.01927,-22063.8,3302.69)">
                <path d="M12075,1951L12214,1951C12237.7,1951 12259.9,1962.89 12273,1982.66C12286.7,2003.18 12304.3,2029.82 12318,2050.34C12331.1,2070.11 12353.3,2082 12377,2082C12460.2,2082 12657.6,2082 12738.5,2082C12760.8,2082 12781.9,2071.47 12795.3,2053.58C12811.7,2031.63 12834.3,2001.37 12850.7,1979.42C12864.1,1961.53 12885.2,1951 12907.5,1951L13049,1951C13049,1951 13049,2299.98 13049,2423.39C13049,2434.69 13044.5,2445.53 13036.5,2453.52C13028.5,2461.51 13017.7,2466 13006.4,2466C12845.8,2466 12278.2,2466 12117.6,2466C12106.3,2466 12095.5,2461.51 12087.5,2453.52C12079.5,2445.53 12075,2434.69 12075,2423.39C12075,2299.98 12075,1951 12075,1951Z" style="fill:rgb(232,235,239);"/>
                <clipPath id="_clip1">
                    <path d="M12075,1951L12214,1951C12237.7,1951 12259.9,1962.89 12273,1982.66C12286.7,2003.18 12304.3,2029.82 12318,2050.34C12331.1,2070.11 12353.3,2082 12377,2082C12460.2,2082 12657.6,2082 12738.5,2082C12760.8,2082 12781.9,2071.47 12795.3,2053.58C12811.7,2031.63 12834.3,2001.37 12850.7,1979.42C12864.1,1961.53 12885.2,1951 12907.5,1951L13049,1951C13049,1951 13049,2299.98 13049,2423.39C13049,2434.69 13044.5,2445.53 13036.5,2453.52C13028.5,2461.51 13017.7,2466 13006.4,2466C12845.8,2466 12278.2,2466 12117.6,2466C12106.3,2466 12095.5,2461.51 12087.5,2453.52C12079.5,2445.53 12075,2434.69 12075,2423.39C12075,2299.98 12075,1951 12075,1951Z"/>
                </clipPath>
                <g clip-path="url(#_clip1)">
                    <path d="M12562,2466L12562,2082L12738.5,2082C12760.8,2082 12781.9,2071.47 12795.3,2053.58C12811.7,2031.63 12834.3,2001.37 12850.7,1979.42C12864.1,1961.53 12885.2,1951 12907.5,1951L13049,1951C13049,1951 13049,2356.79 13049,2447.96C13049,2457.93 13040.9,2466 13031,2466C12942.9,2466 12562,2466 12562,2466Z" style="fill:rgb(232,235,239);"/>
                    <g transform="matrix(1,0,0,1.43202,-8.73115e-11,-1065.36)">
                        <path d="M12562,2010L13049,2466L12075,2466L12562,2010Z" style="fill:rgb(219,224,231);"/>
                    </g>
                </g>
            </g>
        </g>
    </g>
</svg>
