<?xml version="1.0" standalone="no"?>
<!DOCTYPE svg PUBLIC "-//W3C//DTD SVG 20010904//EN"
 "http://www.w3.org/TR/2001/REC-SVG-20010904/DTD/svg10.dtd">
<svg version="1.0" xmlns="http://www.w3.org/2000/svg"
 width="280.000000pt" height="280.000000pt" viewBox="0 0 280.000000 280.000000"
 preserveAspectRatio="xMidYMid meet">
<metadata>
Created by potrace 1.11, written by Peter Selinger 2001-2013
</metadata>
<g transform="translate(0.000000,280.000000) scale(0.100000,-0.100000)"
fill="#000000" stroke="none">
<path d="M1200 2714 c-615 -85 -1097 -546 -1185 -1132 -13 -87 -14 -295 -1
-362 3 -19 8 -46 10 -60 7 -45 45 -174 68 -230 66 -165 159 -302 297 -440 224
-222 471 -348 786 -401 91 -15 302 -19 385 -8 113 16 132 19 212 40 446 113
823 459 962 881 74 226 82 509 21 725 -68 242 -183 433 -371 616 -156 151
-400 284 -629 341 -161 40 -392 53 -555 30z m392 -219 c40 -8 85 -18 101 -24
15 -6 27 -9 27 -6 0 2 19 -3 43 -11 23 -9 52 -18 64 -20 38 -7 228 -111 226
-122 -2 -6 4 -9 12 -6 8 4 15 2 15 -2 0 -5 13 -15 28 -21 26 -12 188 -163 223
-209 39 -51 99 -144 99 -153 0 -6 5 -11 10 -11 6 0 10 -7 10 -15 0 -9 7 -27
16 -40 9 -13 12 -30 8 -36 -4 -7 -3 -9 3 -6 11 7 40 -69 35 -90 -2 -7 2 -13 8
-13 5 0 10 -10 10 -23 0 -13 3 -27 7 -31 7 -7 9 -16 18 -85 3 -24 7 -47 10
-49 3 -3 -1 -12 -8 -20 -8 -11 -8 -14 0 -9 16 10 16 -162 -1 -182 -9 -12 -8
-13 3 -7 10 6 12 4 8 -10 -3 -11 -10 -44 -16 -74 -17 -91 -20 -101 -31 -114
-5 -7 -7 -15 -4 -19 3 -3 -2 -23 -11 -44 -48 -110 -80 -173 -88 -173 -4 0 -5
-4 -2 -10 3 -5 -1 -10 -10 -10 -9 0 -13 -5 -10 -10 10 -17 -108 -168 -127
-162 -5 1 -7 -1 -4 -6 6 -9 -42 -57 -115 -115 -50 -40 -64 -46 -55 -21 3 8 2
13 -3 10 -5 -3 -12 6 -17 22 -10 35 -9 32 -22 65 -7 16 -10 32 -7 37 3 5 1 10
-4 12 -6 1 -12 14 -15 28 -3 14 -10 43 -15 64 -5 22 -8 43 -5 47 2 4 -2 9 -8
11 -8 3 -3 10 12 18 51 27 192 155 203 184 4 10 12 14 18 10 7 -4 9 -3 6 3 -3
5 7 24 23 41 16 18 26 32 22 32 -4 0 -2 4 3 8 13 10 41 57 66 115 12 26 26 47
31 47 5 0 7 4 4 9 -3 4 -1 23 5 42 31 102 41 208 30 302 l-6 45 -73 -53 c-49
-36 -80 -52 -94 -50 -12 3 -42 26 -67 51 -26 26 -63 58 -83 72 -21 13 -35 29
-31 35 3 5 1 7 -4 4 -6 -4 -22 2 -36 13 -14 11 -31 20 -37 20 -12 0 -10 49 5
110 3 14 8 63 11 110 3 47 7 93 9 103 2 9 0 15 -5 12 -4 -2 -10 17 -14 43 -11
72 -11 76 -20 90 -4 7 -2 12 6 12 9 0 9 3 2 8 -6 4 -16 29 -24 55 -9 34 -16
45 -23 38 -14 -14 -40 -14 -32 -1 3 6 -1 10 -10 10 -9 0 -14 -4 -11 -9 3 -5
-1 -12 -10 -15 -8 -3 -12 -2 -9 4 3 6 -1 7 -9 4 -9 -3 -13 -10 -10 -15 3 -5
-3 -6 -12 -2 -13 5 -15 3 -9 -8 7 -12 6 -12 -11 1 -10 8 -16 10 -11 5 11 -13
-22 -45 -41 -38 -10 4 -13 2 -8 -5 5 -8 1 -10 -10 -5 -12 4 -15 3 -10 -5 4 -7
1 -12 -9 -12 -10 0 -13 -5 -9 -12 5 -8 2 -9 -9 -5 -9 3 -16 3 -14 -1 1 -4 -15
-24 -35 -45 -21 -20 -35 -37 -32 -37 3 0 -9 -18 -26 -40 -17 -22 -28 -40 -24
-40 4 0 0 -6 -11 -13 -10 -8 -15 -19 -11 -25 4 -7 1 -12 -8 -12 -9 0 -15 -3
-14 -7 2 -8 -20 -80 -29 -96 -2 -4 -13 -2 -25 4 -13 7 -18 7 -14 1 6 -11 -48
-11 -59 0 -3 3 0 18 6 34 14 33 13 29 23 72 4 17 11 32 14 32 4 0 8 11 8 25 2
22 0 23 -20 13 -11 -6 -31 -22 -43 -35 -12 -12 -27 -23 -33 -23 -5 0 -10 -4
-10 -8 0 -5 -10 -19 -22 -32 l-21 -23 -9 22 c-11 30 -28 22 -55 -25 -13 -21
-27 -38 -32 -37 -5 1 -7 -7 -4 -17 3 -11 1 -20 -5 -20 -5 0 -12 -10 -16 -22
-3 -15 -26 -34 -62 -53 l-57 -30 -48 49 c-27 27 -45 54 -42 59 3 6 1 7 -6 3
-7 -5 -9 -13 -4 -20 4 -7 1 -4 -8 6 -9 9 -23 18 -30 20 -8 2 -21 10 -29 18 -8
8 -26 17 -40 19 -14 1 -28 7 -31 12 -3 5 -17 10 -32 11 -15 1 -27 7 -27 13 0
5 -5 3 -10 -5 -5 -8 -10 -10 -10 -5 0 6 -21 11 -47 10 -27 0 -51 5 -55 10 -5
6 -8 5 -8 -2 0 -7 -7 -10 -15 -7 -8 4 -22 1 -30 -6 -8 -7 -15 -10 -15 -6 0 3
-11 1 -24 -4 -16 -6 -28 -5 -36 3 -10 10 -10 8 -1 -10 14 -28 14 -36 -1 -27
-10 6 -10 5 -1 -7 7 -9 14 -43 15 -76 2 -34 5 -59 7 -57 3 2 13 -26 22 -63 10
-38 32 -94 49 -126 16 -31 27 -57 23 -57 -5 0 0 -5 10 -11 9 -6 15 -14 12 -20
-4 -5 -1 -9 4 -9 6 0 11 -7 11 -15 0 -8 5 -15 10 -15 6 0 10 -5 10 -12 0 -6 7
-19 15 -29 16 -17 12 -69 -5 -69 -4 0 -8 -6 -7 -12 1 -35 -4 -49 -15 -42 -7 4
-8 3 -4 -5 4 -7 4 -20 0 -29 -9 -22 -12 -37 -18 -97 -7 -66 -31 -88 -82 -73
-36 9 -46 12 -113 24 l-33 7 17 -26 c9 -14 14 -30 11 -36 -3 -5 -3 -11 2 -13
8 -3 72 -95 72 -104 0 -3 11 -17 24 -31 14 -15 22 -31 19 -36 -3 -6 -2 -7 4
-4 5 3 26 -12 47 -34 22 -21 66 -58 100 -80 34 -23 60 -46 58 -51 -1 -5 2 -7
7 -3 6 3 18 1 28 -4 39 -22 107 -51 120 -51 7 0 13 -5 13 -10 0 -6 3 -9 8 -9
22 4 28 -5 31 -48 1 -26 5 -51 8 -56 4 -6 1 -7 -8 -2 -12 7 -12 6 -1 -7 7 -9
11 -32 9 -52 -2 -20 -1 -36 3 -36 5 0 8 -15 8 -34 0 -19 3 -43 6 -54 6 -17 3
-19 -13 -15 -12 3 -19 8 -17 12 2 3 -6 7 -17 7 -46 3 -227 95 -227 115 0 6 -5
7 -10 4 -6 -3 -13 1 -16 9 -3 9 -9 14 -13 11 -11 -6 -97 66 -174 147 -76 80
-170 216 -162 236 3 7 1 11 -4 8 -8 -6 -35 46 -31 60 1 4 -3 10 -8 13 -11 7
-56 135 -70 198 -7 29 -6 45 2 54 8 9 8 10 0 6 -7 -4 -14 3 -16 18 -4 16 -1
22 6 18 6 -4 5 0 -2 9 -9 11 -11 49 -7 139 2 68 6 135 9 149 8 47 38 155 53
190 44 105 54 121 66 114 9 -6 9 -5 0 7 -9 12 -2 29 38 89 57 84 51 78 153
183 41 42 80 77 85 77 6 0 11 4 11 9 0 11 101 77 112 73 5 -1 8 2 8 8 0 12
159 92 170 85 4 -3 10 0 12 6 2 6 15 12 30 12 14 1 24 5 21 10 -2 4 4 7 15 7
10 0 22 3 25 7 4 3 22 8 39 10 18 2 40 6 48 10 20 8 36 11 95 18 27 3 51 8 53
9 9 9 249 2 314 -9z"/>
<path d="M1349 2403 c-13 -16 -12 -17 4 -4 9 7 17 15 17 17 0 8 -8 3 -21 -13z"/>
<path d="M1065 2400 c-3 -6 1 -7 9 -4 18 7 21 14 7 14 -6 0 -13 -4 -16 -10z"/>
<path d="M1660 2406 c0 -2 8 -10 18 -17 15 -13 16 -12 3 4 -13 16 -21 21 -21
13z"/>
<path d="M1520 2320 c-9 -6 -10 -10 -3 -10 6 0 15 5 18 10 8 12 4 12 -15 0z"/>
<path d="M1770 2309 c0 -5 5 -7 10 -4 6 3 10 8 10 11 0 2 -4 4 -10 4 -5 0 -10
-5 -10 -11z"/>
<path d="M1190 2256 c0 -2 8 -10 18 -17 15 -13 16 -12 3 4 -13 16 -21 21 -21
13z"/>
<path d="M875 2160 c3 -5 8 -10 11 -10 2 0 4 5 4 10 0 6 -5 10 -11 10 -5 0 -7
-4 -4 -10z"/>
<path d="M2159 2073 c-13 -16 -12 -17 4 -4 9 7 17 15 17 17 0 8 -8 3 -21 -13z"/>
<path d="M1430 1959 c0 -5 5 -7 10 -4 6 3 10 8 10 11 0 2 -4 4 -10 4 -5 0 -10
-5 -10 -11z"/>
<path d="M1115 1880 c-3 -5 -1 -10 4 -10 6 0 11 5 11 10 0 6 -2 10 -4 10 -3 0
-8 -4 -11 -10z"/>
<path d="M380 1766 c0 -2 8 -10 18 -17 15 -13 16 -12 3 4 -13 16 -21 21 -21
13z"/>
<path d="M2460 1126 c0 -2 8 -10 18 -17 15 -13 16 -12 3 4 -13 16 -21 21 -21
13z"/>
</g>
</svg>
